<mxfile host="65bd71144e">
    <diagram id="atgKaGPzxMXrw-5INfLU" name="Page-1">
        <mxGraphModel dx="1074" dy="795" grid="0" gridSize="10" guides="1" tooltips="1" connect="1" arrows="1" fold="1" page="0" pageScale="1" pageWidth="850" pageHeight="1100" math="0" shadow="0">
            <root>
                <mxCell id="0"/>
                <mxCell id="1" parent="0"/>
                <mxCell id="3" value="Main Notebook" style="swimlane;" vertex="1" parent="1">
                    <mxGeometry x="269" y="166" width="412" height="392" as="geometry"/>
                </mxCell>
                <mxCell id="2" value="Reading data" style="rounded=0;whiteSpace=wrap;html=1;" vertex="1" parent="3">
                    <mxGeometry x="47" y="58" width="120" height="60" as="geometry"/>
                </mxCell>
            </root>
        </mxGraphModel>
    </diagram>
</mxfile>